<svg xmlns="http://www.w3.org/2000/svg" width="238.54286mm" height="68.742134mm" viewBox="0 0 238.54286 68.742134" version="1.1">
  <g transform="translate(14.19405,-86.492027)">
    <g transform="matrix(0.35277777,0,0,-0.35277777,174.58517,118.34701)">
      <path d="m 0,0 c -0.006,-11.234 -2.055,-19.779 -6.153,-25.683 l -0.034,-0.055 c -4.32,-5.822 -10.494,-8.799 -18.361,-8.799 h -0.054 c -8.195,-0.011 -14.52,2.952 -18.901,8.845 -4.393,5.905 -6.587,14.458 -6.601,25.692 0.014,0 0,0 0,0.11 0.006,0.012 0.006,0.046 0.014,0.08 0.021,10.048 2.214,17.876 6.569,23.446 4.403,5.916 10.446,8.891 18.054,8.878 7.878,0 14.204,-2.818 18.931,-8.499 C -2.182,18.175 0,10.161 0,0.046 Z m 21.652,32.118 c -5.257,10.334 -13.453,17.664 -24.56,21.875 -6.684,2.334 -13.863,3.486 -21.589,3.486 -3.539,0 -7.194,-0.244 -10.967,-0.73 -12.022,-1.548 -21.835,-6.536 -29.46,-14.993 -4.68,-5.039 -8.119,-11.373 -10.317,-18.96 -2.172,-7.516 -3.274,-15.01 -3.3,-22.509 l 0.042,-0.118 -0.039,-0.279 c 0.006,-9.22 1.321,-18.098 3.952,-26.644 2.421,-7.892 6.342,-14.294 11.747,-19.213 l 1.478,-1.273 c 5.851,-5.04 13.667,-8.623 23.47,-10.724 4.465,-0.959 8.916,-1.436 13.348,-1.436 5.313,0 10.612,0.684 15.964,2.078 10.748,2.222 19.702,7.994 26.7,17.246 3.249,4.522 5.886,10.005 7.938,16.488 2.042,6.456 3.066,14.19 3.071,23.178 0,12.386 -2.489,23.206 -7.478,32.528" style="fill:#cc0000;fill-opacity:1;fill-rule:nonzero;stroke:none" />
    </g>
    <g transform="matrix(0.35277777,0,0,-0.35277777,74.731137,118.34701)">
      <path d="m 0,0 c -0.008,-11.234 -2.063,-19.779 -6.148,-25.683 l -0.035,-0.055 c -4.333,-5.822 -10.503,-8.799 -18.372,-8.799 h -0.055 c -8.186,-0.011 -14.516,2.952 -18.889,8.845 -4.405,5.905 -6.6,14.458 -6.6,25.692 V 0.046 0.081 0.11 c 0.009,10.094 2.203,17.943 6.584,23.526 4.401,5.916 10.423,8.891 18.04,8.878 7.892,0 14.208,-2.818 18.939,-8.499 C -2.189,18.175 0.005,10.161 0,0.046 Z m -77.566,-68.1 c 6.39,-24.167 23.011,-36.338 49.707,-36.462 0.13,0.01 0.257,0.01 0.393,0 14.06,0 27.956,2.334 39.114,10.812 10.457,7.971 17.989,20.688 18.019,40.399 0.017,0.012 -0.004,0.012 0,0.122 V 6.537 c 0,0 0,0.029 -0.004,0.152 -0.035,19.69 -6.427,32.657 -18.015,40.553 -12.428,8.478 -24.944,11.009 -38.925,11.03 l -0.11,-0.021 -0.24,0.021 C -45.997,58.239 -59.369,52.791 -67.666,41.945 -76.03,31.054 -80.203,16.85 -80.215,-0.675 c 0,-14.992 3.156,-27.075 9.461,-36.25 6.3,-9.188 13.844,-15.479 22.622,-18.87 5.549,-2.136 11.128,-3.209 16.749,-3.209 3.266,0 6.558,0.356 9.845,1.099 7.368,1.611 13.495,5.283 18.386,10.943 l 2.928,3.404 v -4.499 -2.334 c -0.603,-8.988 -2.873,-15.73 -6.809,-20.242 -3.95,-4.519 -8.352,-7.275 -13.192,-8.271 -1.527,-0.308 -3.065,-0.464 -4.6,-0.464 -3.309,0 -6.595,0.722 -9.901,2.156 -4.822,2.123 -8.418,5.173 -10.764,9.124 h -32.076 v 0.008" style="fill:#cc0000;fill-opacity:1;fill-rule:nonzero;stroke:none" />
    </g>
    <g transform="matrix(0.35277777,0,0,-0.35277777,14.022527,118.34701)">
      <path d="m 0,0 c -0.005,-11.234 -2.055,-19.779 -6.148,-25.683 l -0.035,-0.042 c -4.329,-5.835 -10.498,-8.812 -18.377,-8.812 h -0.055 c -8.174,-0.011 -14.504,2.952 -18.888,8.845 -4.393,5.905 -6.587,14.458 -6.601,25.692 0.014,0 0,0 0,0.11 0.009,0.012 0.009,0.034 0.014,0.059 0.017,10.06 2.211,17.897 6.575,23.467 4.396,5.916 10.427,8.891 18.04,8.878 7.894,0 14.208,-2.818 18.952,-8.499 C -2.194,18.175 0,10.161 0,0.046 Z m 29.889,-7.958 v 0.032 97.873 0.013 L 0.017,90.049 H 0.012 0 V 41.004 l -2.937,3.448 c -3.064,3.595 -6.769,6.659 -11.04,9.111 -5.654,2.853 -12.089,4.258 -19.542,4.258 C -47.233,57.801 -58.479,52.314 -67.228,41.38 -75.734,30.691 -79.967,16.496 -79.98,-1.228 v -0.253 l -0.004,-0.022 c 0.05,-17.854 4.798,-31.75 13.259,-42.089 4.393,-5.35 9.195,-8.777 17.073,-11.816 7.178,-2.788 14.787,-3.596 22.413,-3.596 14.056,0 26.395,0.875 37.903,8.724 11.976,8.181 19.201,22.31 19.225,42.211 0.014,0 0,0.008 0,0.098 z" style="fill:#cc0000;fill-opacity:1;fill-rule:nonzero;stroke:none" />
    </g>
    <g transform="matrix(0.35277777,0,0,-0.35277777,35.849767,97.276091)">
      <path d="m 0,0 c 8.444,0 15.284,6.845 15.284,15.285 0,8.444 -6.84,15.284 -15.284,15.284 -8.44,0 -15.28,-6.84 -15.28,-15.284 C -15.28,6.845 -8.44,0 0,0" style="fill:#cc0000;fill-opacity:1;fill-rule:nonzero;stroke:none" />
    </g>
    <g transform="matrix(0.35277777,0,0,-0.35277777,96.033197,97.276091)">
      <path d="m 0,0 c 8.444,0 15.285,6.845 15.285,15.285 0,8.444 -6.841,15.284 -15.285,15.284 -8.44,0 -15.281,-6.84 -15.281,-15.284 C -15.281,6.845 -8.44,0 0,0" style="fill:#cc0000;fill-opacity:1;fill-rule:nonzero;stroke:none" />
    </g>
    <g transform="matrix(0.35277777,0,0,-0.35277777,218.77986,101.61572)">
      <path d="M 0,0 C -10.06,7.241 -22.048,9.808 -34.564,9.808 -46.795,9.242 -58.387,6.912 -68.054,-0.861 -77.439,-8.389 -83.198,-20.34 -83.198,-39.688 v -66.552 h 29.858 v 72.531 c 0,6.824 1.992,11.799 5.977,14.938 3.982,3.119 8.536,4.688 13.659,4.688 5.119,0 9.735,-1.569 13.866,-4.688 4.114,-3.139 6.178,-8.114 6.178,-14.938 v -58.027 l 0.034,-14.525 29.412,0.021 v 66.552 C 15.786,-19.778 10.119,-7.283 0,0" style="fill:#cc0000;fill-opacity:1;fill-rule:nonzero;stroke:none" />
    </g>
    <g transform="matrix(0.35277777,0,0,-0.35277777,125.17836,98.109811)">
      <path d="M 0,0 H -0.164 -0.202 -0.304 -0.427 C -0.492,0 -0.532,0.013 -0.553,0.013 V 0 c 0,0 -0.016,0.013 -0.23,0.013 V 0.025 C -17.424,0 -30.43,-5.208 -39.764,-15.584 -48.851,-25.703 -53.387,-39.751 -53.389,-57.729 v -0.046 c 0,-0.274 0.008,-0.341 0.02,-0.616 -0.012,-0.278 -0.02,-0.375 -0.02,-0.642 v -0.033 c 0.002,-17.965 4.535,-32.016 13.625,-42.131 9.352,-10.381 22.378,-15.589 39.046,-15.614 h 0.035 0.064 0.009 0.007 0.008 c 0.021,0 0.06,0 0.168,0.012 h 0.296 0.055 0.114 c 17.242,0.143 30.64,5.187 40.113,15.102 5.331,6.26 9.146,13.435 11.484,21.557 v 0.025 H 20.88 c -1.464,-2.81 -2.92,-4.912 -4.413,-6.338 -3.714,-3.837 -9.014,-5.78 -15.86,-5.871 -0.502,0.026 -1.049,0.034 -1.46,0.068 -0.424,0.014 -0.43,0.048 -0.683,0.048 -6.064,0.526 -10.79,2.73 -13.967,6.511 -5.343,5.414 -7.972,14.482 -8.001,27.306 0.033,12.825 2.658,21.876 7.822,27.105 3.352,3.958 8.086,6.169 14.198,6.701 l 0.046,0.013 c 0.21,0.009 0.21,0.021 0.401,0.033 0.591,0.042 1.147,0.056 1.767,0.056 6.735,-0.08 12.036,-2.027 15.716,-5.829 1.497,-1.46 2.97,-3.561 4.426,-6.355 l 0.008,-0.012 h 30.755 v 0.012 0.021 c -2.35,8.136 -6.157,15.302 -11.36,21.404 C 30.672,-5.173 17.251,-0.13 0,0" style="fill:#cc0000;fill-opacity:1;fill-rule:nonzero;stroke:none" />
    </g>
    <g transform="matrix(0.35277777,0,0,-0.35277777,143.39566,126.37701)">
      <path d="M 0,0 V 0.013" style="fill:#cc0000;fill-opacity:1;fill-rule:nonzero;stroke:#cc0000;stroke-width:0.75;stroke-linecap:round;stroke-linejoin:round;stroke-miterlimit:4;stroke-dasharray:none;stroke-opacity:1" />
    </g>
    <g transform="matrix(0.35277777,0,0,-0.35277777,101.48919,138.91234)">
      <path d="M 0,0 H -0.009" style="fill:#cc0000;fill-opacity:1;fill-rule:nonzero;stroke:#cc0000;stroke-width:0.75;stroke-linecap:round;stroke-linejoin:round;stroke-miterlimit:4;stroke-dasharray:none;stroke-opacity:1" />
    </g>
    <g transform="matrix(0.35277777,0,0,-0.35277777,41.250657,138.91234)">
      <path d="M 0,0 H -0.008" style="fill:#cc0000;fill-opacity:1;fill-rule:nonzero;stroke:#cc0000;stroke-width:0.75;stroke-linecap:round;stroke-linejoin:round;stroke-miterlimit:4;stroke-dasharray:none;stroke-opacity:1" />
    </g>
    <g transform="matrix(0.35277777,0,0,-0.35277777,30.432197,138.90923)">
      <path d="M 0,0 30.667,-0.009 H 30.67 V 105.829 H 0 Z" style="fill:#cc0000;fill-opacity:1;fill-rule:nonzero;stroke:none" />
    </g>
    <g transform="matrix(0.35277777,0,0,-0.35277777,90.670727,138.90923)">
      <path d="M 0,0 30.667,-0.009 V 105.862 H 0 Z" style="fill:#cc0000;fill-opacity:1;fill-rule:nonzero;stroke:none" />
    </g>
  </g>
</svg>
