<svg xmlns="http://www.w3.org/2000/svg" version="1.1" width="755.90668" height="755.90399" viewBox="0 0 755.90668 755.90399">
  <g transform="matrix(1.3333333,0,0,-1.3333333,-75.589465,804.17465)">
    <g transform="translate(623.6221,319.666)">
      <path d="m 0,0 c 0,-156.553 -126.912,-283.463 -283.465,-283.463 -156.554,0 -283.465,126.91 -283.465,283.463 0,156.554 126.911,283.465 283.465,283.465 C -126.912,283.465 0,156.554 0,0" style="fill:#cc0000;fill-opacity:1;fill-rule:nonzero;stroke:none" />
    </g>
    <g transform="translate(286.5537,203.7402)">
      <path d="m 0,0 c -18.871,-0.027 -33.503,6.814 -43.635,20.43 -10.143,13.633 -15.203,33.4 -15.242,59.347 0.039,0 0,0 0,0.246 0.026,0.041 0.026,0.081 0.039,0.143 0.038,23.242 5.098,41.334 15.177,54.209 10.158,13.67 24.087,20.536 41.671,20.511 18.248,0 32.828,-6.517 43.792,-19.64 10.001,-13.486 15.06,-31.994 15.06,-55.365 V 79.777 C 56.862,53.83 52.114,34.088 42.659,20.445 L 42.581,20.354 C 32.58,6.867 18.325,0 0.131,0 Z m -97.271,-20.928 c 10.145,-12.355 21.239,-20.275 39.434,-27.285 16.582,-6.451 34.167,-8.312 51.776,-8.312 32.476,0 60.972,2.017 87.554,20.146 27.664,18.912 44.363,51.543 44.414,97.518 0.028,0 0,0.013 0,0.222 v 0.026 0.078 226.094 0.026 L 56.9,287.792 c 0,0 -0.012,0 0,0 H 56.862 V 174.498 l -6.776,7.973 c -7.075,8.298 -15.633,15.373 -25.505,21.044 -13.058,6.58 -27.924,9.832 -45.143,9.832 -31.682,-0.052 -57.667,-12.72 -77.867,-37.977 -19.651,-24.698 -29.431,-57.485 -29.457,-98.429 v -0.586 l -0.013,-0.05 c 0.117,-41.242 11.081,-73.34 30.628,-97.233" style="fill:#ffffff;fill-opacity:1;fill-rule:nonzero;stroke:none" />
    </g>
    <g transform="translate(521.6602,456.8066)">
      <path d="m 0,0 c 0,-19.496 -15.803,-35.311 -35.313,-35.311 -19.496,0 -35.296,15.815 -35.296,35.311 0,19.496 15.8,35.312 35.296,35.312 C -15.803,35.312 0,19.496 0,0" style="fill:#ffffff;fill-opacity:1;fill-rule:nonzero;stroke:none" />
    </g>
  </g>
</svg>
